<?xml version="1.0" encoding="UTF-8" standalone="no"?>
<!-- Created with Inkscape (http://www.inkscape.org/) -->

<svg
   xmlns:dc="http://purl.org/dc/elements/1.1/"
   xmlns:cc="http://creativecommons.org/ns#"
   xmlns:rdf="http://www.w3.org/1999/02/22-rdf-syntax-ns#"
   xmlns:svg="http://www.w3.org/2000/svg"
   xmlns="http://www.w3.org/2000/svg"
   xmlns:sodipodi="http://sodipodi.sourceforge.net/DTD/sodipodi-0.dtd"
   xmlns:inkscape="http://www.inkscape.org/namespaces/inkscape"
   width="793.70081"
   height="1122.5197"
   viewBox="0 0 210 297"
   version="1.1"
   id="svg8"
   inkscape:version="0.92.2 (30a58d1, 2017-08-07)"
   sodipodi:docname="base_pipe.svg">
  <defs
     id="defs2" />
  <sodipodi:namedview
     id="base"
     pagecolor="#ffffff"
     bordercolor="#666666"
     borderopacity="1.0"
     inkscape:pageopacity="0.0"
     inkscape:pageshadow="2"
     inkscape:zoom="0.35355339"
     inkscape:cx="-731.0185"
     inkscape:cy="231.33528"
     inkscape:document-units="mm"
     inkscape:current-layer="layer1"
     showgrid="false"
     showborder="false"
     units="px"
     inkscape:window-width="2493"
     inkscape:window-height="1378"
     inkscape:window-x="67"
     inkscape:window-y="34"
     inkscape:window-maximized="1" />
  <metadata
     id="metadata5">
    <rdf:RDF>
      <cc:Work
         rdf:about="">
        <dc:format>image/svg+xml</dc:format>
        <dc:type
           rdf:resource="http://purl.org/dc/dcmitype/StillImage" />
        <dc:title></dc:title>
      </cc:Work>
    </rdf:RDF>
  </metadata>
  <g
     inkscape:label="Layer 1"
     inkscape:groupmode="layer"
     id="layer1">
    <rect
       style="opacity:1;fill:#ffffff;stroke:#000000;stroke-width:0.22760451"
       id="rect815"
       width="59.720234"
       height="90.065216"
       x="-260.04761"
       y="-59.160465" />
    <path
       style="fill:none;stroke:#000000;stroke-width:0.26458332px;stroke-linecap:butt;stroke-linejoin:miter;stroke-opacity:1"
       d="m -260.0476,30.904751 c 0,31.750002 35.05728,30.710566 35.05728,30.710566"
       id="path1031"
       inkscape:connector-curvature="0" />
    <path
       style="fill:none;stroke:#000000;stroke-width:0.26458332px;stroke-linecap:butt;stroke-linejoin:miter;stroke-opacity:1"
       d="m -200.32737,30.904751 c 0,30.616072 -24.66295,30.710566 -24.66295,30.710566"
       id="path1033"
       inkscape:connector-curvature="0" />
    <rect
       style="opacity:1;fill:#ffffff;stroke:#000000;stroke-width:0.5659321"
       id="rect1114"
       width="21.167715"
       height="212.507"
       x="-237.55855"
       y="63.02" />
    <path
       style="opacity:1;fill:#b3ff80;stroke:#000000;stroke-width:1.86606598"
       d="M -895.67506,639.63343 V 240.29531 h 38.25435 38.25436 v 399.33812 399.33817 h -38.25436 -38.25435 z"
       id="path1166"
       inkscape:connector-curvature="0"
       transform="scale(0.26458333)" />
    <path
       style="opacity:1;fill:#b3ff80;stroke:#000000;stroke-width:1.86606598"
       d="m -885.10843,227.92369 c -30.3835,-6.51771 -51.4996,-17.52219 -68.60943,-35.75522 -16.39731,-17.47373 -24.14006,-34.96663 -26.90502,-60.7855 l -1.326,-12.38194 h 111.24832 111.24832 v 10.3615 c 0,15.06925 -4.98785,35.27005 -12.5409,50.79072 -11.20908,23.03346 -32.03309,40.13645 -58.24179,47.83465 -12.55629,3.68812 -37.51745,3.65892 -54.8735,-0.0642 z"
       id="path1168"
       inkscape:connector-curvature="0"
       transform="scale(0.26458333)" />
    <path
       style="opacity:1;fill:#ececec;stroke:#000000;stroke-width:1.86606598"
       d="M -981.51409,-53.610078 V -222.48905 h 111.96395 111.96396 V -53.610078 115.26889 h -111.96396 -111.96395 z"
       id="path1170"
       inkscape:connector-curvature="0"
       transform="scale(0.26458333)" />
    <path
       style="opacity:1;fill:#ececec;stroke:#000000;stroke-width:1.86606598"
       d="M -893.80899,639.63343 V 242.16138 h 36.38828 36.38829 v 397.47205 397.47207 h -36.38829 -36.38828 z"
       id="path1180"
       inkscape:connector-curvature="0"
       transform="scale(0.26458333)" />
    <path
       style="opacity:1;fill:#ececec;stroke:#000000;stroke-width:1.86606598"
       d="m -879.1961,227.18964 c -13.86955,-2.34048 -29.29726,-7.27272 -42.49939,-13.58705 -16.30867,-7.80013 -40.35193,-31.42802 -47.49601,-46.67546 -4.6178,-9.85565 -10.45653,-33.58243 -10.45653,-42.49206 0,-3.4726 2.91819,-3.56798 109.16486,-3.56798 h 109.16486 l -0.0325,8.86382 c -0.0928,25.40926 -12.42578,55.86428 -29.52601,72.91168 -22.00796,21.93996 -52.89576,30.52477 -88.31931,24.54705 z"
       id="path1182"
       inkscape:connector-curvature="0"
       transform="scale(0.26458333)" />
    <path
       style="fill:none;stroke:#000000;stroke-width:0.26458332px;stroke-linecap:butt;stroke-linejoin:miter;stroke-opacity:1"
       d="m -237.55855,275.527 c 0,41.49148 31.77202,41.65378 31.77202,41.65378 v 0"
       id="path1307"
       inkscape:connector-curvature="0" />
    <rect
       y="-129.52768"
       x="273.92975"
       height="90.065216"
       width="59.720234"
       id="rect1311"
       style="opacity:1;fill:#ffffff;stroke:#000000;stroke-width:0.22760451"
       transform="rotate(90.113141)" />
    <path
       inkscape:connector-curvature="0"
       id="path1313"
       d="M 38.921465,274.00716 C 7.1715252,273.94446 8.1417322,309.00373 8.1417322,309.00373"
       style="fill:none;stroke:#000000;stroke-width:0.26458332px;stroke-linecap:butt;stroke-linejoin:miter;stroke-opacity:1" />
    <path
       inkscape:connector-curvature="0"
       id="path1315"
       d="M 38.803537,333.72727 C 8.1875252,333.66681 8.1417322,309.00373 8.1417322,309.00373"
       style="fill:none;stroke:#000000;stroke-width:0.26458332px;stroke-linecap:butt;stroke-linejoin:miter;stroke-opacity:1" />
    <rect
       y="-7.3472176"
       x="296.41882"
       height="212.507"
       width="21.167715"
       id="rect1317"
       style="opacity:1;fill:#ffffff;stroke:#000000;stroke-width:0.5659321"
       transform="rotate(90.113141)" />
    <path
       inkscape:connector-curvature="0"
       id="path1319"
       d="m -99.455402,296.80086 105.6579992,0.20864 -0.01999,10.12145 -0.01999,10.12144 -105.6580062,-0.20864 -105.658011,-0.20864 0.02,-10.12145 0.02,-10.12144 z"
       style="opacity:1;fill:#b3ff80;stroke:#000000;stroke-width:0.49372995" />
    <path
       inkscape:connector-curvature="0"
       id="path1321"
       d="m 9.4703942,299.81172 c 1.7403488,-8.03555 4.6629778,-13.61676 9.4960628,-18.1342 4.631816,-4.32931 9.264182,-6.36878 16.096856,-7.08685 l 3.276741,-0.34437 -0.05812,29.4344 -0.05812,29.43439 -2.741475,-0.005 c -3.987064,-0.008 -9.329243,-1.33813 -13.4318,-3.34464 -6.0884,-2.97777 -10.602678,-8.49638 -12.6257958,-15.43477 -0.969253,-3.32411 -0.948486,-9.92839 0.04566,-14.51855 z"
       style="opacity:1;fill:#b3ff80;stroke:#000000;stroke-width:0.49372995" />
    <path
       inkscape:connector-curvature="0"
       id="path1323"
       d="m 84.00976,274.45153 44.68247,0.0882 -0.0585,29.62374 -0.0585,29.62374 -44.68247,-0.0882 -44.682473,-0.0882 0.0585,-29.62374 0.0585,-29.62374 z"
       style="opacity:1;fill:#ececec;stroke:#000000;stroke-width:0.49372995" />
    <path
       inkscape:connector-curvature="0"
       id="path1325"
       d="m -99.456382,297.29459 105.1642742,0.20767 -0.01901,9.62771 -0.01901,9.62772 -105.1642712,-0.20767 -105.164281,-0.20767 0.019,-9.62771 0.019,-9.62771 z"
       style="opacity:1;fill:#ececec;stroke:#000000;stroke-width:0.49372995" />
    <path
       inkscape:connector-curvature="0"
       id="path1327"
       d="m 9.6615232,301.3764 c 0.6264968,-3.66842 1.9395428,-7.74775 3.6171038,-11.23751 2.072301,-4.31092 8.336397,-10.66001 12.374339,-12.54225 2.610049,-1.21663 8.890797,-2.74906 11.248133,-2.74441 0.91879,0.002 0.942501,0.77398 0.886991,28.88501 l -0.05704,28.88315 -2.345198,-0.0132 c -6.722805,-0.0378 -14.774236,-3.31684 -19.275751,-7.85017 -5.793438,-5.83439 -8.0486928,-14.01126 -6.4485828,-23.3806 z"
       style="opacity:1;fill:#ececec;stroke:#000000;stroke-width:0.49372995" />
    <path
       style="fill:none;stroke:#000000;stroke-width:0.26458332px;stroke-linecap:butt;stroke-linejoin:miter;stroke-opacity:1"
       d="m -217.23149,274.40083 c 0,21.80402 12.61081,22.68609 12.61081,22.68609"
       id="path1331"
       inkscape:connector-curvature="0" />
    <path
       style="opacity:1;fill:#f2f2f2;stroke:#000000;stroke-width:0.5"
       d="m -786.06091,1197.4002 c -5.62384,-0.7989 -13.49052,-2.5474 -19.10089,-4.2455 -40.77541,-12.3412 -69.63928,-42.2215 -83.05999,-85.9848 -5.13096,-16.7315 -7.84033,-34.5825 -8.81769,-58.0966 l -0.27536,-6.625 h 37.70931 37.7093 l 0.30448,3.875 c 1.09931,13.9906 1.94048,19.8801 4.08843,28.625 5.50607,22.417 18.23007,39.3304 34.63402,46.0374 l 4.05839,1.6594 -0.002,32.0266 c -10e-4,17.6147 -0.14812,34.5579 -0.32639,37.6516 l -0.32412,5.625 -1.79861,-0.061 c -0.989,-0.034 -3.14838,-0.2528 -4.79838,-0.4872 z"
       id="path1333"
       inkscape:connector-curvature="0"
       transform="scale(0.26458333)" />
    <path
       style="opacity:1;fill:#b3ff80;stroke:#000000;stroke-width:2.82842708"
       d="m 150.1432,1188.8763 c 1.02355,-38.5019 1.86375,-88.1408 1.86712,-110.3086 l 0.006,-40.3051 91.21677,0.01 c 50.16923,0 124.62757,0.8438 165.46299,1.8681 l 74.24621,1.8624 v 108.4405 108.4405 h -167.3301 -167.3301 z"
       id="path1337"
       inkscape:connector-curvature="0"
       transform="scale(0.26458333)" />
    <path
       style="opacity:1;fill:#b3ff80;stroke:#000000;stroke-width:2.82842708"
       d="m 115.24689,1252.1786 c -57.712868,-12.6091 -87.508412,-58.9333 -75.308396,-117.0846 10.809971,-51.5256 42.782876,-84.4232 90.157646,-92.7649 l 10.6066,-1.8676 v 107.795 c 0,122.1103 2.93577,110.1251 -25.45585,103.9221 z"
       id="path1339"
       inkscape:connector-curvature="0"
       transform="scale(0.26458333)" />
    <path
       style="opacity:1;fill:#b3ff80;stroke:#000000;stroke-width:2.82842708"
       d="m -770.0508,1159.885 v -33.9412 h 394.56559 394.565581 v 33.9412 33.9411 H -375.48521 -770.0508 Z"
       id="path1341"
       inkscape:connector-curvature="0"
       transform="scale(0.26458333)" />
    <path
       style="opacity:1;fill:#b3ff80;stroke:#000000;stroke-width:2.82842708"
       d="m -804.56412,1191.1934 c -44.77279,-14.3156 -71.36044,-44.4306 -84.46569,-95.6717 -3.00948,-11.7669 -5.47178,-28.1912 -5.47178,-36.4984 v -15.1039 h 35.13061 35.1306 l 1.48755,7.7782 c 0.81815,4.278 2.25463,12.8694 3.19218,19.0919 2.53712,16.839 15.44593,38.5542 27.58954,46.4112 l 10.6066,6.8625 v 36.2956 c 0,27.2321 -0.88288,36.2577 -3.53553,36.1436 -1.94454,-0.084 -10.79338,-2.4727 -19.66408,-5.309 z"
       id="path1343"
       inkscape:connector-curvature="0"
       transform="scale(0.26458333)" />
    <path
       style="opacity:1;fill:#b3ff80;stroke:#000000;stroke-width:2.82842708"
       d="M -891.67316,639.45436 V 243.47457 h 33.94112 33.94113 v 395.97979 395.97984 h -33.94113 -33.94112 z"
       id="path1345"
       inkscape:connector-curvature="0"
       transform="scale(0.26458333)" />
    <path
       style="opacity:1;fill:#b3ff80;stroke:#000000;stroke-width:2.82842708"
       d="m -890.76301,222.36734 c -25.22847,-7.11189 -41.16061,-16.28752 -58.02944,-33.42029 -13.26658,-13.47416 -17.37672,-20.01713 -22.02215,-35.05728 -9.03651,-29.25684 -9.88961,-28.07927 21.86579,-30.18213 15.16744,-1.0044 63.05012,-1.83276 106.40597,-1.84081 l 78.8288,-0.0146 -1.19759,16.26346 c -2.38981,32.45401 -23.4161,64.61818 -51.69827,79.08347 -17.65052,9.02759 -51.97593,11.41996 -74.15311,5.16821 z"
       id="path1347"
       inkscape:connector-curvature="0"
       transform="scale(0.26458333)" />
    <path
       style="opacity:1;fill:#b3ff80;stroke:#000000;stroke-width:2.82842708"
       d="M -979.3544,-53.510281 V -220.38748 h 110.30865 110.30866 V -53.510281 113.36692 H -869.04575 -979.3544 Z"
       id="path1349"
       inkscape:connector-curvature="0"
       transform="scale(0.26458333)" />
  </g>
</svg>
