<?xml version="1.0" encoding="UTF-8" standalone="no"?>
<!-- Created with Inkscape (http://www.inkscape.org/) -->

<svg
   xmlns:dc="http://purl.org/dc/elements/1.1/"
   xmlns:cc="http://creativecommons.org/ns#"
   xmlns:rdf="http://www.w3.org/1999/02/22-rdf-syntax-ns#"
   xmlns:svg="http://www.w3.org/2000/svg"
   xmlns="http://www.w3.org/2000/svg"
   xmlns:sodipodi="http://sodipodi.sourceforge.net/DTD/sodipodi-0.dtd"
   xmlns:inkscape="http://www.inkscape.org/namespaces/inkscape"
   width="793.70081"
   height="1122.5197"
   viewBox="0 0 210 297"
   version="1.1"
   id="svg8"
   inkscape:version="0.92.2 (30a58d1, 2017-08-07)"
   sodipodi:docname="base_pipe.svg">
  <defs
     id="defs2" />
  <sodipodi:namedview
     id="base"
     pagecolor="#ffffff"
     bordercolor="#666666"
     borderopacity="1.0"
     inkscape:pageopacity="0.0"
     inkscape:pageshadow="2"
     inkscape:zoom="0.70710678"
     inkscape:cx="-2108.8744"
     inkscape:cy="509.56974"
     inkscape:document-units="mm"
     inkscape:current-layer="layer1"
     showgrid="false"
     showborder="false"
     units="px"
     inkscape:window-width="1920"
     inkscape:window-height="1009"
     inkscape:window-x="0"
     inkscape:window-y="34"
     inkscape:window-maximized="1" />
  <metadata
     id="metadata5">
    <rdf:RDF>
      <cc:Work
         rdf:about="">
        <dc:format>image/svg+xml</dc:format>
        <dc:type
           rdf:resource="http://purl.org/dc/dcmitype/StillImage" />
        <dc:title />
      </cc:Work>
    </rdf:RDF>
  </metadata>
  <g
     inkscape:label="Layer 1"
     inkscape:groupmode="layer"
     id="layer1">
    <rect
       style="opacity:1;fill:#f2f2f2;stroke:#000000;stroke-width:0.22760451"
       id="rect815"
       width="59.720234"
       height="90.065216"
       x="-263.2226"
       y="-50.164631"
       inkscape:export-xdpi="96"
       inkscape:export-ydpi="96" />
    <path
       style="fill:#f2f2f2;stroke:#000000;stroke-width:0.26458332px;stroke-linecap:butt;stroke-linejoin:miter;stroke-opacity:1"
       d="m -263.2226,39.900584 c 0,31.750002 35.05728,30.710566 35.05728,30.710566"
       id="path1031"
       inkscape:connector-curvature="0"
       inkscape:export-xdpi="96"
       inkscape:export-ydpi="96" />
    <path
       style="fill:#f2f2f2;stroke:#000000;stroke-width:0.26458332px;stroke-linecap:butt;stroke-linejoin:miter;stroke-opacity:1"
       d="m -203.50237,39.900584 c 0,30.616072 -24.66295,30.710566 -24.66295,30.710566"
       id="path1033"
       inkscape:connector-curvature="0"
       inkscape:export-xdpi="96"
       inkscape:export-ydpi="96" />
    <path
       style="opacity:1;fill:#f2f2f2;stroke:#000000;stroke-width:0.74835467"
       d="M -239.09685,178.1848 V 73.415146 h 8.98025 8.98026 V 178.1848 282.95446 h -8.98026 -8.98025 z"
       id="path1345"
       inkscape:connector-curvature="0"
       inkscape:export-xdpi="96"
       inkscape:export-ydpi="96" />
    <path
       style="opacity:1;fill:#f2f2f2;stroke:#000000;stroke-width:0.52916664"
       d="m -234.78617,69.74165 c -7.98261,-1.170525 -15.63985,-4.717865 -20.28738,-9.398466 -4.51532,-4.547441 -7.65178,-11.967421 -7.65178,-18.10195 v -2.090618 h 29.44718 29.44718 l -0.31909,4.137818 c -0.8474,10.988937 -6.04127,19.419589 -14.38986,23.357523 -5.36391,2.530099 -9.57724,3.073598 -16.24625,2.095693 z"
       id="path1044"
       inkscape:connector-curvature="0"
       inkscape:export-xdpi="96"
       inkscape:export-ydpi="96" />
    <path
       style="opacity:1;fill:#f2f2f2;stroke:#000000;stroke-width:0.52916664"
       d="M -262.72533,-5.0931345 V -49.807716 h 29.36875 29.36875 V -5.0931345 39.621449 h -29.36875 -29.36875 z"
       id="path1046"
       inkscape:connector-curvature="0"
       inkscape:export-xdpi="96"
       inkscape:export-ydpi="96" />
    <path
       style="fill:none;stroke:#000000;stroke-width:0.26458332px;stroke-linecap:butt;stroke-linejoin:miter;stroke-opacity:1"
       d="m -239.09685,282.95446 c 0,18.01429 -22.67778,18.23511 -22.67778,18.23511 v 0"
       id="path1074"
       inkscape:connector-curvature="0"
       inkscape:export-xdpi="96"
       inkscape:export-ydpi="96" />
    <path
       style="fill:none;stroke:#000000;stroke-width:0.26458332px;stroke-linecap:butt;stroke-linejoin:miter;stroke-opacity:1"
       d="m -221.13634,282.95446 c 0,36.13825 -40.65029,36.19564 -40.65029,36.19564"
       id="path1076"
       inkscape:connector-curvature="0"
       inkscape:export-xdpi="96"
       inkscape:export-ydpi="96" />
    <rect
       inkscape:export-ydpi="96"
       inkscape:export-xdpi="96"
       y="-594.55676"
       x="-343.56833"
       height="90.065216"
       width="59.720234"
       id="rect1078"
       style="opacity:1;fill:#f2f2f2;stroke:#000000;stroke-width:0.22760451"
       transform="rotate(-89.935937)" />
    <path
       inkscape:export-ydpi="96"
       inkscape:export-xdpi="96"
       inkscape:connector-curvature="0"
       id="path1080"
       d="m -504.87542,343.00404 c 31.74998,0.0355 30.74974,-35.02292 30.74974,-35.02292"
       style="fill:#f2f2f2;stroke:#000000;stroke-width:0.26458332px;stroke-linecap:butt;stroke-linejoin:miter;stroke-opacity:1" />
    <path
       inkscape:export-ydpi="96"
       inkscape:export-xdpi="96"
       inkscape:connector-curvature="0"
       id="path1082"
       d="m -504.80865,283.28385 c 30.61605,0.0342 30.68297,24.69727 30.68297,24.69727"
       style="fill:#f2f2f2;stroke:#000000;stroke-width:0.26458332px;stroke-linecap:butt;stroke-linejoin:miter;stroke-opacity:1" />
    <path
       inkscape:export-ydpi="96"
       inkscape:export-xdpi="96"
       inkscape:connector-curvature="0"
       id="path1084"
       d="m -366.56432,319.03293 -104.76959,-0.11715 0.01,-8.98024 0.0101,-8.98026 104.76958,0.11715 104.7696,0.11714 -0.01,8.98025 -0.01,8.98025 z"
       style="opacity:1;fill:#f2f2f2;stroke:#000000;stroke-width:0.74835467" />
    <path
       inkscape:export-ydpi="96"
       inkscape:export-xdpi="96"
       inkscape:connector-curvature="0"
       id="path1086"
       d="m -475.00258,314.601 c -1.17945,7.98129 -4.73535,15.63456 -9.42114,20.27686 -4.55249,4.51023 -11.97597,7.63839 -18.1105,7.63153 l -2.09061,-0.002 0.0329,-29.44716 0.0329,-29.44716 4.13745,0.32372 c 10.98799,0.85968 19.41283,6.06298 23.34142,14.41596 2.5241,5.36674 3.06289,9.58067 2.07753,16.24859 z"
       style="opacity:1;fill:#f2f2f2;stroke:#000000;stroke-width:0.52916664" />
    <path
       inkscape:export-ydpi="96"
       inkscape:export-xdpi="96"
       inkscape:connector-curvature="0"
       id="path1088"
       d="m -549.86856,342.45647 -44.71455,-0.05 0.0328,-29.36873 0.0328,-29.36873 44.71456,0.05 44.71455,0.05 -0.0328,29.36873 -0.0328,29.36873 z"
       style="opacity:1;fill:#f2f2f2;stroke:#000000;stroke-width:0.52916664" />
    <path
       style="opacity:1;fill:#f9f9f9;stroke:#000000;stroke-width:0.5"
       d="m -987.83662,1172.3406 v -33.2151 l 6.375,-0.6198 c 17.63052,-1.7138 36.57146,-7.6249 48.59179,-15.1643 18.50227,-11.6052 27.80062,-26.9031 29.80692,-49.0394 l 0.30589,-3.375 h 33.21457 33.21457 l -0.24026,2.625 c -0.13214,1.4437 -0.36714,5.1 -0.52222,8.125 -1.33153,25.9726 -10.63626,50.6877 -26.44772,70.25 -23.9167,29.5903 -69.33037,49.894 -119.17354,53.2806 l -5.125,0.3482 z"
       id="path1090"
       inkscape:connector-curvature="0"
       transform="scale(0.26458333)"
       inkscape:export-xdpi="96"
       inkscape:export-ydpi="96" />
    <path
       inkscape:export-ydpi="96"
       inkscape:export-xdpi="96"
       inkscape:connector-curvature="0"
       id="path96"
       d="M -572.86303,146.81012 V 89.130594 h 8.98025 8.98026 v 57.679526 57.67953 h -8.98026 -8.98025 z"
       style="opacity:1;fill:#f2f2f2;stroke:#000000;stroke-width:0.55526531" />
    <ellipse
       style="fill:#ececec;stroke:#000000;stroke-width:0.22431143"
       id="path98"
       cx="-564.2594"
       cy="48.546238"
       rx="34.424316"
       ry="36.669376"
       inkscape:export-xdpi="96"
       inkscape:export-ydpi="96" />
    <ellipse
       style="fill:#333333;stroke:#000000;stroke-width:0.3408657"
       id="path100"
       cx="-563.88525"
       cy="48.733326"
       rx="28.39934"
       ry="30.083134" />
  </g>
</svg>
